<svg xmlns="http://www.w3.org/2000/svg" width="256" height="256"><path fill="#1976D2" fill-opacity=".016" fill-rule="evenodd" d="M0 128.004v128.004l128.25-.254 128.25-.254.254-127.75L257.008 0H0v128.004m.485.496c0 70.4.119 99.053.265 63.672.146-35.38.146-92.98 0-128C.604 29.153.485 58.1.485 128.5"/><path fill="#1976D2" fill-opacity=".163" fill-rule="evenodd" d="M0 128v128H133.633l1.279-6.432c1.008-5.075 1.601-6.308 2.809-5.845 1.236.474 1.413 1.718.92 6.44l-.612 5.853 59.236-.258 59.235-.258.254-127.75L257.008 0h-27.004c-31.83 0-30.421-.831-21.02 12.397 5.663 7.968 23.8 36.405 35.783 56.103 3.011 4.95 6.77 10.64 8.354 12.644 1.583 2.004 2.879 4.424 2.879 5.378 0 2.557-5.472 11.674-11.897 19.824-3.102 3.935-7.362 9.578-9.467 12.54-2.106 2.962-6.444 8.678-9.641 12.701l-5.813 7.315-9.433-12.201c-5.188-6.711-14.105-18.843-19.815-26.96-8.419-11.968-10.518-14.395-11.096-12.832-1.493 4.036-10.302 44.722-15.392 71.091l-5.308 27.5 2.807 3c1.543 1.65 3.428 4.35 4.188 6 1.198 2.598 1.986 3.04 5.882 3.295 3.842.252 4.761.75 6.286 3.407 1.148 1.999 1.441 3.456.821 4.076-.531.531-.743 1.545-.472 2.254 1.085 2.826-8.065 2.908-11.566.103-1.177-.944-1.3-.671-.731 1.615 1.077 4.324-1.878 3.487-7.06-2a3008.313 3008.313 0 0 0-9.744-10.253c-2.891-3.026-5.563-6.465-5.936-7.642-1.161-3.657-9.051-4.703-10.118-1.34-.351 1.108-1.057 1.755-1.569 1.439-.511-.316-1.45.69-2.085 2.236-.977 2.376-1.224 2.517-1.6.915-.325-1.389-.654-1.555-1.23-.622-1.018 1.647-3.315.253-2.611-1.584.371-.966-.227-1.399-1.931-1.399-3.084 0-3.081-.484.031-4.182 1.419-1.687 2.5-4.236 2.5-5.895 0-3.581 1.39-3.713 9.54-.909 7.821 2.69 9.704 4.048 14.358 10.348 2.175 2.945 5.277 6.801 6.893 8.57 2.55 2.793 3.026 2.987 3.607 1.472.368-.959.316-2.005-.116-2.324-.432-.319-1.419-1.81-2.194-3.313-.774-1.504-2.152-2.97-3.062-3.259-1.882-.597-6.555-4.887-12.831-11.78-4.172-4.582-4.481-4.728-10-4.722-3.132.004-6.984.679-8.559 1.5-1.576.822-3.909 1.494-5.185 1.494-3.238 0-7.567 1.777-8.956 3.676-2.194 3.001-11.398 1.768-21.214-2.843-4.379-2.057-13.996-2.428-17.478-.674-.933.47-2.846.95-4.25 1.066-1.404.116-2.553.59-2.553 1.052 0 .463-.403.592-.895.288-.493-.305-1.153.119-1.469.941-.315.822-1.487 1.494-2.605 1.494-1.117 0-2.031.498-2.031 1.107s-.698.839-1.552.511c-.89-.341-1.291-.173-.941.393.764 1.237-.947 1.431-9.007 1.02-1.65-.084-5.812.162-9.249.547l-6.249.7-1.036 4.111c-2.085 8.267-7.22 22.158-9.239 24.994-1.886 2.649-2.136 2.741-2.761 1.015-.379-1.044-1.238-5.723-1.909-10.398-2.339-16.286-4.899-24.764-8.833-29.25-1.395-1.591-1.361-1.75.371-1.751 4.655-.001 43.82-4.159 52.405-5.562 17.374-2.841 21.571-2.859 32-.138 5.225 1.364 12.26 2.792 15.634 3.175 5.573.632 6.101.894 5.767 2.861-.268 1.577-.048 1.419.809-.585.647-1.512 1.566-2.75 2.042-2.75.476 0 .596-.437.266-.971-.652-1.054.331-1.329 11.245-3.145 6.839-1.138 7.393-1.089 9.5.843 1.23 1.129 4.487 3.188 7.237 4.576 2.75 1.388 6.761 4.344 8.913 6.569 2.151 2.225 4.237 3.844 4.634 3.599.397-.246 1.03-2.589 1.407-5.209 1.536-10.69 7.971-41.741 13.674-65.982 3.336-14.179 6.473-28.111 6.972-30.96.498-2.849 2.444-10.523 4.323-17.052 3.422-11.89 10.636-37.986 14.512-52.5C197.071 6.516 198 2.353 198 1.518 198 .171 186.866 0 99 0H0v128m.485.5c0 70.4.119 99.053.265 63.672.146-35.38.146-92.98 0-128C.604 29.153.485 58.1.485 128.5M209 42.722c-3.997 1.501-7.486 5.098-9.756 10.056-4.622 10.097-1.787 22.451 7.411 32.284 7.048 7.535 11.145 9.378 20.919 9.411 7.281.024 8.428-.242 11.669-2.712 9.397-7.161 7.027-22.095-6.092-38.379-7.023-8.718-17.277-13.244-24.151-10.66m41.5 101.926c-2.75 3.752-7.417 9.672-10.371 13.156l-5.371 6.334 2.801 2.923c2.687 2.806 2.879 2.853 4.752 1.181 1.073-.958 4.612-5.269 7.864-9.58l5.912-7.837-.293-6.5-.294-6.5-5 6.823M128.015 184.75c.009.412.452 1.425.985 2.25.784 1.213.972 1.069.985-.75.008-1.238-.435-2.25-.985-2.25s-.993.338-.985.75"/><path fill="#1976D2" fill-opacity=".519" fill-rule="evenodd" d="M0 87c0 47.85.354 87 .786 87 .433 0 10.366-.905 22.075-2.01 19.989-1.888 29.626-3.131 46.773-6.036 6.783-1.149 7.733-1.055 19.343 1.919 13.708 3.511 21.411 3.991 24.156 1.507 1.093-.99 5.113-2.023 10.328-2.656 7.28-.882 8.796-.808 10.288.507.963.847 4.154 2.745 7.091 4.218 2.937 1.472 7.288 4.471 9.669 6.666l4.328 3.989 1.044-5.302c.575-2.916 2.383-12.277 4.018-20.802 2.952-15.395 14.73-67.59 15.551-68.92.237-.382.674-2.729.972-5.215.299-2.486 1.717-8.535 3.152-13.443C183.582 54.714 194.962 13.054 196.079 8c.547-2.475 1.236-5.295 1.53-6.267.508-1.673-2.128-1.764-49.726-1.714-37.893.039-50.625.35-51.736 1.266-1.158.956-1.562.948-1.893-.035C93.7-.396 72.778-.487 69.732 1.143c-1.603.858-2.232.858-2.518 0C66.939.316 57.6 0 33.417 0H0v87M203.327 1.589c-.355.926-.236 2.236.264 2.911 7.174 9.694 12.985 18.273 19.647 29 4.44 7.15 10.606 16.825 13.703 21.5 3.098 4.675 7.144 11.2 8.993 14.5 1.849 3.3 4.87 7.977 6.714 10.394L256 84.288V46.81c0-33.724-.161-37.477-1.604-37.477-1.271 0-1.487.719-1.041 3.465.546 3.366.51 3.411-1.251 1.583-.997-1.034-1.54-2.106-1.208-2.381 1.273-1.054 1.128-4-.197-4-.764 0-2.204-.9-3.199-2-2.091-2.31-1.1-2.743 1.143-.5 2.146 2.146 3.651 1.918 2.427-.369-1.755-3.279.149-3.223 2.583.077L256 8.389V0h-8.559c-6.28 0-8.367.311-7.836 1.17.522.845.192.916-1.191.255-1.053-.503-9.233-1.051-18.177-1.217-14.49-.269-16.334-.118-16.91 1.381m16.309 1.905c.316.822.984 1.241 1.485.931 1.049-.648.207-2.425-1.149-2.425-.5 0-.651.672-.336 1.494M10.5 4c-.34.55-.141 1 .441 1S12 4.55 12 4s-.198-1-.441-1-.719.45-1.059 1m220 0c.34.55.816 1 1.059 1s.441-.45.441-1-.477-1-1.059-1-.781.45-.441 1M102.079 5.583c.048 1.165.285 1.402.604.605.289-.722.253-1.585-.079-1.917-.332-.332-.568.258-.525 1.312M61.805 9.679c-.984.259-1.463 1.049-1.143 1.884.677 1.763 2.435 1.92 2.088.187-.138-.687.313-1.137 1-1 .688.137 1.25-.2 1.25-.75 0-1.037-.348-1.072-3.195-.321m2.945 3.401c-.962.561-1.743 1.785-1.735 2.72.014 1.465.152 1.493 1 .2.817-1.244 1.134-1.268 1.86-.143.623.966.875.606.875-1.25 0-1.434-.056-2.593-.125-2.577-.069.017-.912.489-1.875 1.05M71 16.059c0 .582.45.781 1 .441s1-.816 1-1.059S72.55 15 72 15s-1 .477-1 1.059m7.636 1.435c.316.822.976 1.246 1.469.941 1.412-.872 1.044-2.435-.574-2.435-.892 0-1.243.587-.895 1.494M169 30.059c0 .582.441.787.979.454.539-.333 2.001-.061 3.25.604 2.061 1.099 2.144 1.057.899-.453-1.52-1.843-5.128-2.268-5.128-.605m-3.5.941c.34.55.816 1 1.059 1s.441-.45.441-1-.477-1-1.059-1-.781.45-.441 1m-3 2c.34.55.816 1 1.059 1s.441-.45.441-1-.477-1-1.059-1-.781.45-.441 1m11.313 4.683c.721.289 1.584.253 1.916-.079.332-.332-.258-.568-1.312-.525-1.165.048-1.402.285-.604.604m77 4c.721.289 1.584.253 1.916-.079.332-.332-.258-.568-1.312-.525-1.165.048-1.402.285-.604.604m-40.628 1.399c-8.77 1.832-14.09 12.773-12.036 24.754 3.328 19.41 25.381 32.818 39.679 24.123 7.85-4.774 8.88-14.109 2.89-26.195-3.994-8.06-12.239-17.94-17.074-20.462-4.224-2.203-9.432-3.062-13.459-2.22M245 43c0 .55.477 1 1.059 1s.781-.45.441-1-.816-1-1.059-1-.441.45-.441 1m6.638 2.5c.317.825.93 1.5 1.362 1.5.432 0 1.045-.675 1.362-1.5.389-1.015-.051-1.5-1.362-1.5-1.311 0-1.751.485-1.362 1.5M110 50c.825.533 1.95.969 2.5.969s.325-.436-.5-.969c-.825-.533-1.95-.969-2.5-.969s-.325.436.5.969m.5 5c.34.55.816 1 1.059 1s.441-.45.441-1-.477-1-1.059-1-.781.45-.441 1m-6.5 1c0 .55.45 1 1 1s1-.45 1-1-.45-1-1-1-1 .45-1 1m12.409 1.392c-.793.86-.707 1.54.316 2.496.774.723 1.714.982 2.091.576.376-.406.071-.956-.679-1.222-1.042-.37-1.076-.662-.143-1.238.671-.415.834-.988.363-1.274-.471-.286-1.348.012-1.948.662M121.275 59c-.083 1.1.216 2 .665 2 1.264 0 3.122-2.604 2.385-3.342-1.313-1.312-2.903-.613-3.05 1.342M4 62c0 .55.477 1 1.059 1s.781-.45.441-1-.816-1-1.059-1S4 61.45 4 62m18.5 2c-.34.55-.141 1 .441 1S24 64.55 24 64s-.198-1-.441-1-.719.45-1.059 1m69.106 1.416c.335.871 1.047 1.584 1.584 1.584 1.315 0 .492-2.273-1.003-2.771-.731-.244-.954.214-.581 1.187m84.948 32.834c-1.531 6.737-3.609 15.625-4.618 19.75-2.257 9.231-12.936 64.647-12.936 67.13 0 .99.905 2.284 2.012 2.876 1.106.592 2.795 2.746 3.753 4.785 1.491 3.176 2.316 3.783 5.738 4.225 3.148.407 4.953-.052 8.497-2.158 2.475-1.471 8.775-4.544 14-6.829 5.225-2.284 16.604-7.598 25.288-11.808 13.985-6.781 16.022-7.508 17.847-6.369 3.129 1.954 3.384.626.57-2.97l-2.523-3.223 4.888-5.58c2.688-3.068 7.597-9.154 10.908-13.523l6.022-7.943-.003-23.557-.002-23.556-3.616 6c-1.989 3.3-5.303 8.025-7.364 10.5-2.061 2.475-5.72 7.266-8.131 10.646-2.411 3.38-7.275 9.962-10.809 14.627l-6.425 8.481-4.164-5.127c-5.489-6.759-25.963-34.453-31.328-42.377-2.328-3.437-4.365-6.25-4.526-6.25-.161 0-1.546 5.513-3.078 12.25M96.5 102c.34.55.816 1 1.059 1s.441-.45.441-1-.477-1-1.059-1-.781.45-.441 1m6.5 8c0 .55.423 1 .941 1s1.219-.45 1.559-1c.34-.55-.084-1-.941-1s-1.559.45-1.559 1m44.5 8c.34.55.816 1 1.059 1s.441-.45.441-1-.477-1-1.059-1-.781.45-.441 1m-5.5 1c.825.533 1.95.969 2.5.969s.325-.436-.5-.969c-.825-.533-1.95-.969-2.5-.969s-.325.436.5.969m111.771 35.25c-.803 1.238-1.952 3.18-2.553 4.318-1.005 1.9-.856 2.032 1.844 1.636 2.673-.392 2.938-.782 2.938-4.317 0-4.507-.249-4.69-2.229-1.637m-7.262 10.921c-2.606 2.051-2.659 2.246-.944 3.5 1 .731 3.756 1.329 6.126 1.329 4.258 0 4.309-.042 4.309-3.5 0-3.307-.186-3.5-3.365-3.5-1.94 0-4.535.92-6.126 2.171m-9.749 7.917c-9.173 2.512-12.695 4.132-13.33 6.132-.311.979-1.209 1.78-1.997 1.78s-1.433.375-1.433.833c0 .459-.679.834-1.509.834-.83 0-3.868 1.086-6.75 2.413-5.365 2.47-8.757 4.92-6.812 4.92 2.235 0 .951 1.99-1.679 2.601-5.103 1.187-15.737 4.504-17.486 5.455-.955.519-2.868.944-4.25.944-1.383 0-2.514.238-2.514.529 0 1.701 6.559 12.977 10.967 18.853 2.839 3.785 4.488 6.623 3.666 6.307-.823-.315-6.123-1.083-11.779-1.705-5.656-.622-10.637-1.35-11.069-1.617-.432-.267-.785.63-.785 1.992 0 1.363-.273 3.189-.607 4.059-.803 2.092-6.393 2.163-6.393.082 0-.825.477-1.5 1.059-1.5s.781-.45.441-1-.141-1 .441-1 1.059-.45 1.059-1-.644-1-1.432-1c-.787 0-2.364-1.31-3.504-2.911-1.14-1.6-4.433-4.846-7.318-7.213l-5.246-4.302 5.744 6.133c8.252 8.809 10.1 14.62 5.006 15.737-2.338.512-3.64-.226-8.682-4.921-3.263-3.038-6.301-5.523-6.75-5.523-1.782 0-.554 1.63 3.165 4.201 7.924 5.479 8.604 10.329 1.788 12.751-3.202 1.138-3.37 1.051-8.01-4.145-2.606-2.919-4.731-4.857-4.722-4.307.009.55 1.345 2.303 2.968 3.895 1.623 1.593 3.215 3.73 3.539 4.75.324 1.02 1.008 1.855 1.521 1.855.513 0 .933 1.361.933 3.025 0 2.259-.598 3.252-2.363 3.923-2.45.932-3.6 3.568-3.623 8.31l-.014 2.758 58.75-.258 58.75-.258v-41.167c0-22.642-.225-41.376-.5-41.63-1.52-1.407-13.577-1.166-19.24.385M1 215.5V256h131.841l.654-3.25c.36-1.787.876-4.037 1.147-5 .426-1.512-.244-1.75-4.914-1.75-4.865 0-5.527-.263-6.602-2.623-1.137-2.496-1.072-2.6 1.339-2.139 2.08.398 2.522.105 2.465-1.627-.081-2.412-1.753-6.77-1.86-4.845-.038.697-1.623 2.007-3.522 2.912-2.836 1.353-3.728 1.417-5 .362-2.258-1.875-1.906-4.043 1.202-7.404l2.75-2.972-3.618 2.168c-5.551 3.326-11.882 2.364-11.882-1.807 0-1.47-.837-1.975-3.673-2.215-3.046-.257-3.837-.807-4.638-3.224-.65-1.962-.614-3.476.108-4.633.966-1.547.556-1.705-4.112-1.586-4.71.121-5.215-.08-5.514-2.19-.181-1.277-.059-3.026.271-3.886.53-1.383.828-1.356 2.579.228 1.804 1.633 1.979 1.643 1.979.117 0-1.311.574-1.53 2.649-1.009 1.865.468 2.44.325 1.941-.481-.389-.63-1.469-1.153-2.399-1.161-1.736-.015-3.329-.828-9.271-4.731-6.635-4.358-22.397-2.725-52.007 5.39-12.265 3.361-13.753 4.012-15.293 6.696-.958 1.669-2.063 2.576-2.518 2.067-.446-.499-1.81-7.179-3.032-14.845S9.007 186.408 7.978 183.7c-1.868-4.916-4.535-8.7-6.133-8.7C1.38 175 1 193.225 1 215.5m121-36.778c0 1.666-6.732 3.582-10.17 2.894-2.14-.428-2.866-.245-2.554.643.62 1.759 11.773 1.121 13.676-.783 1.142-1.142 1.198-1.726.255-2.669-.842-.842-1.207-.868-1.207-.085m5.139 16.364c-2.898 2.35-4.921 2.421-7.31.259-2.232-2.02-2.449-1.108-.258 1.084.865.864 2.552 1.561 3.75 1.549 2.237-.023 7.533-3.459 6.664-4.324-.267-.265-1.547.379-2.846 1.432m-27.532 19.496c-.939 2.446-.735 2.769.893 1.418 1.662-1.38 1.99-3 .607-3-.491 0-1.166.712-1.5 1.582m10.643 6.754c-2.646 1.894-4.249 3.821-4.246 5.103.003 1.725.308 1.562 1.871-1.002 1.027-1.684 3.322-3.767 5.099-4.628 1.777-.86 2.847-1.778 2.378-2.04-.468-.261-2.764.894-5.102 2.567m17.779 13.625c-2.625 1.66-.292 2.242 2.633.657 2.34-1.268 2.487-1.542.838-1.563-1.1-.013-2.662.394-3.471.906"/><path fill="#1976D2" fill-opacity=".703" fill-rule="evenodd" d="M0 14.833c0 8.159.296 15.13.658 15.492.362.362 1.262.156 2-.456.991-.822 1.718-.802 2.778.078 1.046.868 1.98.901 3.434.122 2.589-1.385 4.434-1.37 3.568.031-.493.797-.113.797 1.381-.003 2.23-1.194 3.833.038 2.615 2.01-.461.745.011.887 1.441.433 1.572-.499 2.125-.252 2.125.952 0 .928-.472 1.334-1.1.946-.797-.493-.797-.113.003 1.381.628 1.173.716 2.298.204 2.615-.493.305-1.155-.118-1.471-.94-.755-1.968-2.636-1.922-2.636.065 0 .857-.45 1.281-1 .941-.55-.34-1 .11-1 1 0 .893-.479 1.322-1.068.958-.588-.363-.827-1.29-.532-2.059.296-.77.101-1.399-.431-1.399-.533 0-.969 1.173-.969 2.607 0 1.81-.423 2.445-1.385 2.075-.762-.292-2.358.15-3.547.983-1.188.832-2.815 1.262-3.614.956C.284 43.172 0 44.211 0 48.948c0 3.773.449 6.066 1.25 6.39 1 .403 1 .52 0 .583-1.576.1-1.656 5.71-.095 6.674.655.405.885.278.532-.293-.343-.554-.061-1.775.625-2.714 1.022-1.398 1.75-1.515 4.033-.647 3.944 1.5 5.627 1.25 2.657-.395l-2.499-1.382 3.499-.332c4.589-.435 9.202 1.195 8.507 3.006-.351.913-.028 1.191.948.817 2.035-.781 2.948 1.019 1.054 2.079-1.305.73-1.331 1.131-.176 2.71 1.277 1.746 1.35 1.714 1.26-.545-.058-1.463.466-2.399 1.342-2.399.998 0 1.506 1.35 1.664 4.42.125 2.431-.072 3.961-.437 3.401s-1.564-1.09-2.664-1.176c-4.817-.381-10.071.033-10.899.858-.531.528-.121.841 1 .763 2.69-.187 7.399 1.123 7.399 2.059 0 .432-1.238.761-2.75.731-1.844-.038-2.756.459-2.767 1.506-.009.86-1.247 2.793-2.75 4.296C9.23 80.861 8 81.53 8 80.845c0-.991-.253-.992-1.242-.003-.988.988-.938 1.456.25 2.294 1.207.851 1.125.933-.428.424-1.1-.36-2.274-.08-2.75.656-.659 1.019-1.033.975-1.815-.216-.686-1.046-1.027-1.122-1.125-.25-.077.688-.211 1.813-.298 2.5-.088.688.306 1.581.875 1.985.665.473.587.74-.217.75-.851.01-1.25 1.821-1.25 5.67 0 5.592.022 5.635 2 3.845 1.1-.995 2.056-1.515 2.125-1.155.143.75.565 2.466.75 3.05.069.217 1.7.039 3.625-.395 3.9-.879 4.537-.129 1.5 1.768-2.325 1.452-2.731 5.162-.529 4.839.809-.119 1.784-.529 2.167-.911 1.176-1.177 2.362-.773 2.362.804 0 .825-.45 1.5-1 1.5s-1.014.787-1.032 1.75c-.037 2.065-1.761 4.329-4.432 5.821-2.739 1.531-2.978 3.154-.577 3.916 1.139.361 1.807 1.082 1.486 1.601-.321.52-.997.689-1.503.376-.505-.312-.651.13-.324.984.381.991.036 1.552-.952 1.552-.851 0-1.823.445-2.159.989-.35.566.051.734.941.393 2.127-.817 1.981 1.572-.198 3.226-1.632 1.239-1.635 1.331-.039 1.36.941.018 2.603-.926 3.694-2.096 2.614-2.806 5.759-1.909 3.877 1.105C11.087 130.09 9.99 131 9.343 131s-1.366.563-1.597 1.25c-.328.975-.787.948-2.083-.122-1.081-.893-1.663-.98-1.663-.25 0 .617-.9 1.122-2 1.122-1.925 0-2 .667-2 17.671 0 15.402.225 17.928 1.75 19.67 1.682 1.92 1.672 1.97-.25 1.269-1.614-.588-1.757-.483-.739.542 1.02 1.027 5.136.923 21.5-.546 11.132-.999 25.639-2.69 32.239-3.757 20.595-3.329 23.837-3.378 34.5-.516 5.225 1.403 12.066 2.85 15.203 3.218 4.901.574 6.081.371 8.385-1.442 1.475-1.16 3.896-2.109 5.38-2.109s5.268-.516 8.408-1.147c5.426-1.089 5.843-1.027 8.416 1.263 1.49 1.325 4.508 3.277 6.708 4.337 2.2 1.061 5.903 3.727 8.229 5.926 2.326 2.198 4.426 3.799 4.667 3.559.241-.241 2.052-9.083 4.024-19.65 1.973-10.566 6.307-30.816 9.631-44.999 9.056-38.638 9.549-41.296 7.86-42.365-1.171-.742-1.14-.896.181-.909 1.699-.016 3.264-4.658 10.791-32.015 6.969-25.328 8.302-30.8 7.949-32.632-.374-1.942-7.076-3.947-7.667-2.294C186.526 7.861 185 5.87 185 3.25c0-2.548.05-2.57 1.563-.691.952 1.183 1.747 1.509 2.035.836.265-.62 2.213-.973 4.437-.805 2.93.222 3.965-.076 3.965-1.145 0-1.771-2.611-1.921-3.417-.195-.466 1-.7 1-1.166 0-.45-.965-8.458-1.25-35.068-1.25-33.315 0-34.464.064-33.886 1.883.489 1.541-.063 2.007-3.035 2.565-1.998.374-3.856.457-4.13.183-.827-.826.769-2.708 1.771-2.088.512.316.931-.127.931-.984 0-1.999-.886-1.972-3.171.096-1.457 1.318-1.835 1.369-1.859.25-.022-.994-.329-.893-1.05.345-1.394 2.393-3.734 2.196-5.945-.5-1.59-1.939-2.128-2.077-3.896-1-1.129.687-2.76 1.25-3.624 1.25-.865 0-1.364.338-1.11.75.255.413-1.976.757-4.958.766-4.255.013-5.305-.286-4.881-1.391.436-1.137.255-1.172-.94-.18-1.184.983-1.933.911-3.746-.358C82.574.714 80.7 0 79.655 0c-1.606 0-1.7.241-.608 1.556.71.856.878 1.478.372 1.382-.505-.096-1.257-.065-1.669.069-.412.133-1.306.299-1.986.368-.68.069-1.388.912-1.574 1.875-.241 1.255.321 1.759 1.987 1.782 2.286.031 2.291.055.328 1.539-1.712 1.294-1.783 1.642-.5 2.453.996.63 1.077.95.245.961-.687.008-1.25.515-1.25 1.126 0 .716 1.175.891 3.303.492 2.486-.467 3.817-.139 5.388 1.324 1.303 1.214 2.88 1.736 4.198 1.392C89.106 16 90 16.239 90 16.883c0 .615.675 1.117 1.5 1.117s1.5-.48 1.5-1.067c0-.588 1.912-3.452 4.25-6.366 2.338-2.914 4.894-6.234 5.682-7.379C104.635.714 106 1.241 106 4.374c0 1.582-1.019 2.741-3.412 3.883-1.876.894-4.895 3.79-6.707 6.435-1.813 2.644-4.327 5.928-5.588 7.298-2.006 2.178-2.293 2.258-2.293.633 0-1.364-.53-1.718-1.999-1.334-1.099.288-2.256.108-2.569-.399-.314-.508-.996-.659-1.517-.337-.521.322-.745.913-.497 1.314.247.401.021 1.382-.504 2.181-.795 1.208-1.294 1.047-2.978-.963-1.113-1.328-1.793-3.015-1.511-3.75.282-.734.076-1.335-.456-1.335-.533 0-.969 1.35-.969 3 0 2.533-.389 3-2.5 3-2.943 0-3.16-.766-.75-2.642 1.667-1.298 1.667-1.334 0-.753-.963.335-1.75.163-1.75-.381 0-.545-.901-1.226-2.001-1.514-1.101-.288-1.75-.115-1.441.383.308.499-.318.907-1.392.907-1.074 0-2.23.725-2.57 1.611-.431 1.124-.186 1.446.81 1.063.786-.301 1.695.146 2.02.993.325.847 1.206 1.305 1.957 1.016.924-.354 1.367.261 1.367 1.896 0 2.426-1.142 3.215-2.192 1.515-.308-.498-1.415-.683-2.46-.409-1.483.387-2.051-.194-2.591-2.654-.432-1.966-1.546-3.476-2.963-4.014C55.087 19.702 53.484 14 56.571 14c1.429 0 1.429-.143 0-1.571C55.707 11.564 55 10.47 55 9.996c0-1.238 3.767-2.258 5.161-1.397.797.493.972.19.54-.935C60.295 6.606 60.567 6 61.448 6c.762 0 1.612.562 1.89 1.25.301.747.536.545.583-.5.043-.963.802-1.75 1.686-1.75 1.055 0 1.398-.544 1-1.582-.334-.87-.614-2.107-.622-2.75-.009-.673-.433-.533-1 .332-.776 1.181-1.16 1.23-1.807.228-1.11-1.715-20.099-1.45-21.853.305-.677.676-1.011 1.448-.744 1.715.267.267-1.832.793-4.664 1.169-5.391.715-7.383.122-4.888-1.456.809-.512 1.021-.944.471-.961-.55-.017-.325-.467.5-1 1.169-.755.893-.973-1.25-.985C29.238.007 28 .45 28 1s-.675 1-1.5 1S25 1.55 25 1s-1.266-1-2.813-1c-2.292 0-3.071.655-4.199 3.531-1.594 4.063-5.072 5.528-7.458 3.141C9.688 5.831 9 4.629 9 4c0-2.096-2.822-4-5.929-4H0v14.833M203.579 1.655c-.375.977.155 2.515 1.292 3.75 2.063 2.243 15.673 23.017 31.129 47.516 20.14 31.923 19.35 30.817 20.035 28.06.667-2.687.04-34.178-.696-34.952-.246-.259-.827.143-1.291.893-.49.794-1.724 1.134-2.947.815-1.233-.323-1.855-.147-1.502.424.331.535-.356 1.224-1.526 1.53-1.496.391-1.96 1.09-1.56 2.349.312.985.093 2.086-.489 2.445-.581.359-.787 1.09-.457 1.624.534.863-2.248.58-6.25-.635-1.776-.54.707-5.247 3.097-5.872 1.6-.418 1.705-.754.638-2.04-1.051-1.266-1.003-1.643.272-2.133.852-.327 1.348-1.121 1.101-1.765-.258-.671 1.254-1.701 3.547-2.417 5.152-1.608 6.028-1.571 6.028.253 0 .825.408 1.5.907 1.5 1.188 0 1.669-8.015 1.279-21.301-.187-6.366-.726-10.699-1.33-10.699-.607 0-.75 1.204-.356 3 .476 2.168.288 3-.681 3-1.915 0-6.819-4.787-6.819-6.657 0-1.169-.581-1.401-2.25-.897-1.238.374-3.15.772-4.25.884-1.289.132-1.896.821-1.706 1.937.474 2.794-1.519 1.991-3.144-1.267-.823-1.65-1.129-3-.68-3 .449 0 1.086.704 1.416 1.563.33.86 1.053 1.284 1.607.941 1.661-1.026 1.146-2.323-1.243-3.126-3.982-1.338-4.753-1.24-5.811.737-.572 1.067-1.428 1.701-1.904 1.407-.475-.294-1.036-.02-1.245.608-.712 2.136-4.57-1.207-4.081-3.537.402-1.914.321-1.949-.946-.41-.761.925-2.707 1.825-4.324 2-2.404.259-2.997-.093-3.259-1.933-.206-1.453.199-2.25 1.143-2.25.805 0 1.722-.675 2.039-1.5.722-1.883 2.631-1.904 6.173-.066 2.454 1.273 3.017 1.245 5.022-.25 1.242-.926 1.797-1.851 1.235-2.056-.563-.204-1.414.246-1.892 1-.633.998-.874 1.031-.885.122C228.004.321 224.947 0 216.107 0c-10.145 0-11.986.243-12.528 1.655m41.957-.596c.367.592 1.881.789 3.444.445 2.244-.492 3.204-.086 4.905 2.077L256 6.27V0h-5.559c-3.656 0-5.335.362-4.905 1.059m-79.51 1.473c1.12 1.348.935 1.404-1.54.463-1.942-.739-3.133-.748-3.849-.032-.57.57-1.866 1.037-2.879 1.037-2.272 0-6.278 3.561-4.938 4.389.534.33 1.207-.016 1.496-.769.289-.753 1.884-1.843 3.545-2.422 2.353-.82 2.913-.774 2.536.209-.335.873.76 1.31 3.56 1.42 3.055.12 4.043-.221 4.043-1.393 0-.854.45-1.274 1-.934 1.721 1.064 1.09-.712-.75-2.108-2.396-1.819-3.777-1.732-2.224.14M207 2c0 .55.45 1 1 1s1-.45 1-1-.45-1-1-1-1 .45-1 1M18 4.994c0 .546.888.858 1.974.692C23.106 5.208 23.602 4 20.667 4 19.2 4 18 4.447 18 4.994M78 5c0 .55.45 1 1 1s1-.45 1-1-.45-1-1-1-1 .45-1 1m36-.067c0 .522.45 1.227 1 1.567.55.34 1 1.491 1 2.559S115.55 11 115 11s-1 .505-1 1.122c0 .791.431.765 1.456-.086.801-.664 1.921-.921 2.489-.57.638.394.779-.021.37-1.088-.517-1.345-.276-1.577 1.095-1.051 1.176.451 1.611.261 1.316-.576-.243-.688-1.175-1.189-2.073-1.114-.897.075-1.44-.172-1.207-.55.234-.378-.446-1.231-1.511-1.895-1.064-.665-1.935-.782-1.935-.259M43 6c0 .55.45 1 1 1s1-.45 1-1-.45-1-1-1-1 .45-1 1m48.667-.333c-.956.955-.822 2.333.226 2.333.491 0 1.152-.675 1.469-1.5.585-1.524-.481-2.048-1.695-.833M207.5 6c.34.55.816 1 1.059 1s.441-.45.441-1-.477-1-1.059-1-.781.45-.441 1M241 6c0 .55.45 1 1 1s1-.45 1-1-.45-1-1-1-1 .45-1 1M27.308 7.423C27.844 9.033 34 10.008 34 8.483c0-.701-1.565-1.447-3.517-1.675-2.126-.248-3.382-.005-3.175.615M20 8c0 .55.45 1 1 1s1-.45 1-1-.45-1-1-1-1 .45-1 1m91.813-.317c.721.289 1.584.253 1.916-.079.332-.332-.258-.568-1.312-.525-1.165.048-1.402.285-.604.604M106 9c0 .55.45 1 1 1s1-.45 1-1-.45-1-1-1-1 .45-1 1m55 0c0 .55.477 1 1.059 1s.781-.45.441-1-.816-1-1.059-1-.441.45-.441 1m7 .441c0 .793.359 1.663.798 1.934 1.279.791 3.525-1.043 2.771-2.263-.992-1.606-3.569-1.368-3.569.329m-133.775.913c-2.179.715-3.093 1.546-2.733 2.487.299.777-.004 2.071-.671 2.875-1.52 1.831-2.069 10.013-.728 10.841.547.338 1.678.048 2.514-.646 1.313-1.09 1.428-.898.847 1.414-.425 1.695-.265 2.675.438 2.675.609 0 1.108-.45 1.108-1s.675-1 1.5-1 1.5.525 1.5 1.167c0 .641.331.836.735.431.404-.404-.321-1.532-1.612-2.506-1.385-1.044-2.503-3.099-2.725-5.01-.208-1.782-.64-3.665-.962-4.185-.322-.521.001-.823.716-.672.715.151 1.442-.639 1.615-1.755.173-1.117 1.28-2.467 2.459-3 1.18-.534 2.324-1.532 2.543-2.22.465-1.462-1.879-1.424-6.544.104m37.348.765c.46.744-.085.866-1.698.381-2.275-.685-2.301-.638-.625 1.107 1.594 1.659 1.891 1.681 3.328.244 1.436-1.437 1.432-1.633-.052-2.203-1.038-.398-1.384-.227-.953.471m14.407.405c-1.651 1.99-1.032 2.452 1.834 1.368 1.273-.481 2.034-1.329 1.691-1.884-.881-1.425-2.057-1.252-3.525.516m-77.167.159c.721.289 1.584.253 1.916-.079.332-.332-.258-.568-1.312-.525-1.165.048-1.402.285-.604.604M27 12.059c0 .582.45.781 1 .441s1-.816 1-1.059S28.55 11 28 11s-1 .477-1 1.059m-14.187.624c.721.289 1.584.253 1.916-.079.332-.332-.258-.568-1.312-.525-1.165.048-1.402.285-.604.604m232.73.248c-.317.512-.118 1.213.441 1.559.559.345 1.016-.074 1.016-.931 0-1.757-.6-2.015-1.457-.628M110.651 14c-2.526 7.698-2.563 7.327 1.069 10.711 3.232 3.011 3.675 5.389.971 5.21-.859-.057-.842-.22.059-.583 2.466-.995 1.176-1.916-2.911-2.079-3.119-.124-4.891.449-7.077 2.288C101.159 30.896 99.341 32 98.723 32c-.805 0-.817.306-.041 1.082 1.105 1.105 3.741.077 7.498-2.924 1.476-1.179 1.617-1.098 1.158.657-.288 1.1-1.381 2.225-2.43 2.499-3.29.86-2.26 2.922 1.092 2.186 2.366-.52 3-.318 3 .955 0 2.222 5.381 1.493 5.823-.789.178-.916-.125-1.666-.673-1.666-.552 0-.332-1.333.494-2.987.819-1.643 1.227-3.412.907-3.931-.843-1.364 1.48-2.574 4.949-2.578 2.348-.003 3.069-.493 3.32-2.254.175-1.237-.162-2.25-.75-2.25-.589 0-1.07-.675-1.07-1.5 0-1.816-1.635-1.991-2.338-.25-.289.717-.538.468-.583-.583-.044-1.025-.63-1.632-1.329-1.375-.687.252-1.162.889-1.056 1.416.107.527-.455.959-1.25.959-.794 0-1.444-.514-1.444-1.143 0-.628-.643-2.015-1.429-3.083-1.178-1.602-1.514-1.679-1.92-.441M151 14c0 .55.423 1 .941 1s1.219-.45 1.559-1c.34-.55-.084-1-.941-1S151 13.45 151 14m-49.5 1c-.34.55-.141 1 .441 1S103 15.55 103 15s-.198-1-.441-1-.719.45-1.059 1m34.5 0c0 .55.45 1 1 1s1-.45 1-1-.45-1-1-1-1 .45-1 1m-31 6c0 .55.45 1 1 1s1-.45 1-1-.45-1-1-1-1 .45-1 1m-4.296 4.104c.791.791 1.626.799 2.95.03 1.618-.941 1.482-1.077-1.104-1.104-2.151-.022-2.651.269-1.846 1.074m54.736.707c.438 1.379-.26 2.138-2.933 3.186-1.929.757-3.507 1.981-3.507 2.721s-.675 1.604-1.5 1.92c-2.962 1.137-1.513 2.626 2 2.056 3.332-.541 4.723.75 2.839 2.634-1.116 1.116-.908 6.672.25 6.672.6 0 1.559-1.03 2.133-2.288 1.379-3.028 5.483-2.849 8.301.362 1.171 1.334 1.782 1.764 1.357.955-.424-.81-.672-2.775-.551-4.367.168-2.206-.135-2.759-1.272-2.322-.821.315-1.729.19-2.018-.277-.487-.788 4.064-2.582 5.676-2.239.394.084 1.856-.281 3.25-.811 3.08-1.171 3.253-.37.446 2.064-1.924 1.669-1.944 1.812-.25 1.814 1.011.001 3.15.317 4.753.703 2.592.624 2.825.492 2.109-1.196-.442-1.044-.854-2.842-.914-3.995-.12-2.299-2.304-5.403-3.803-5.403-.522 0-1.584-.635-2.36-1.411-.787-.788-2.347-1.166-3.531-.857-1.222.32-2.468-.008-2.941-.774-.618-1.001-1.158-1.05-2.181-.201-.872.724-1.886.796-2.827.201-2.266-1.433-3.156-1.133-2.526.853M4 26c0 .55.477 1 1.059 1s.781-.45.441-1-.816-1-1.059-1S4 25.45 4 26m71.02 1.524c.696.838 1.471 1.318 1.723 1.067.693-.694-.716-2.591-1.924-2.591-.664 0-.588.574.201 1.524M120.5 29c.34.55 1.041 1 1.559 1s.941-.45.941-1-.702-1-1.559-1-1.281.45-.941 1m18.5 0c0 .55.45 1 1 1s1-.45 1-1-.45-1-1-1-1 .45-1 1m-29.543 3.748c.299.779.543 1.604.543 1.834 0 1.404 1.6.083 1.712-1.415.076-1.009-.522-1.834-1.33-1.834-.855 0-1.241.591-.925 1.415M41.25 38.584C38.144 39.943 36.825 42 39.059 42c.582 0 .781.45.441 1-.352.569.509 1 2 1 1.559 0 2.358.421 1.975 1.041-.354.572-1.55.753-2.658.401-1.694-.538-1.909-.306-1.348 1.459.366 1.155.258 2.099-.241 2.099s-1.42 1.125-2.046 2.5c-.976 2.143-.892 2.498.589 2.485 2.512-.023 4.593-1.587 3.805-2.862-.431-.698-.097-.877.913-.489 1.033.397 1.491.129 1.302-.761-.176-.828.404-1.256 1.459-1.079.962.161 1.75-.176 1.75-.75 0-.574.645-1.044 1.433-1.044s1.718-.9 2.067-2c.728-2.294 1.596-2.504 3.3-.8.66.66 1.2.853 1.2.429 0-1.733-2.873-3.475-4.869-2.953-1.235.323-2.131.088-2.131-.559 0-.615-.505-1.117-1.122-1.117-.791 0-.765.431.086 1.456.664.801.901 1.953.526 2.56-1.083 1.752-3.229-1.932-2.709-4.651.249-1.301.287-2.328.086-2.283-.202.044-1.829.721-3.617 1.502M96.005 37c-.788 2.569-.822 5-.07 5 1.727 0 4.182 3.253 3.6 4.77-.481 1.252-.318 1.295.942.249 2.182-1.811 1.879-3.678-.727-4.47-1.363-.414-1.757-.887-1-1.2 1.701-.702 1.584-2.349-.167-2.349-.779 0-1.643-.562-1.921-1.25-.277-.687-.573-1.025-.657-.75M166 38.5c0 .825.436 1.5.969 1.5.532 0 .709-.675.393-1.5-.317-.825-.753-1.5-.969-1.5-.216 0-.393.675-.393 1.5M54 40c0 .55.477 1 1.059 1s.781-.45.441-1-.816-1-1.059-1-.441.45-.441 1m53 0c-1.282.828-1.246.972.25.985.963.008 1.75-.435 1.75-.985 0-1.22-.113-1.22-2 0m64.25 1.538c-1.238.866-2.25 2.086-2.25 2.71 0 .624.675.261 1.5-.807 1.42-1.838 1.572-1.848 2.86-.191 2.441 3.141 3.752 1.652 1.39-1.578-1.147-1.568-1.438-1.579-3.5-.134m-67.894 1.961c.079 1.375.515 2.376.969 2.225.454-.151.791-.6.75-.999-.041-.399-.075-1.4-.075-2.225 0-.825-.402-1.5-.894-1.5s-.83 1.125-.75 2.499M91 43.5c-1.02 1.229-.951 1.5.378 1.5.892 0 1.622-.675 1.622-1.5s-.17-1.5-.378-1.5c-.207 0-.937.675-1.622 1.5m-59.357.19c-.354.354-.643 1.263-.643 2.02 0 .758-1.107 2.571-2.46 4.03-1.84 1.984-2.187 2.981-1.377 3.956 2.41 2.904 5.681.75 3.904-2.57-1.177-2.201-.171-3.342 4.183-4.742 1.513-.486 2.759-1.331 2.77-1.877.022-1.118-5.383-1.811-6.377-.817m175.341 1.175c-2.301 1.231-4.45 3.692-6.33 7.25-2.504 4.736-2.792 6.168-2.389 11.885.579 8.218 3.763 15.087 9.801 21.146 6.129 6.149 9.725 7.869 17.884 8.553 5.862.492 7.356.257 10.841-1.702 8.233-4.627 9.457-14.007 3.416-26.173-9.024-18.173-22.519-26.687-33.223-20.959M8.733 46.124c.679.684 1.486.991 1.793.683.308-.308-.247-.867-1.233-1.243-1.425-.542-1.54-.428-.56.56m97.934.543c-.357.357-.192 1.2.367 1.874.718.865.568 1.398-.508 1.811-.84.322-1.526.163-1.526-.352s-.713-.664-1.584-.329c-1.275.489-1.324.772-.25 1.453 1.022.647.924.849-.416.861-1.008.009-1.75.773-1.75 1.801 0 1.401-.764 1.761-3.545 1.669-4.035-.134-5.525 1.289-3.16 3.019 1.449 1.059 1.417 1.328-.33 2.824-1.061.909-2.726 1.396-3.698 1.083-1.277-.412-1.407-.311-.47.363 1.054.757 1.033 1.152-.11 2.101-1.743 1.446-1.037 6.226.815 5.516 1.788-.686 2.921 1.456 3.075 5.814.135 3.808 2.654 7.418 4.415 6.33 1.572-.971 1.189-2.224-.841-2.755-1.016-.266-2.106-1.469-2.421-2.674-.472-1.807-.324-1.984.849-1.011 1.125.934 1.421.854 1.421-.386 0-.861.985-2.256 2.19-3.099 2.802-1.963 1.877-2.936-1.551-1.633-2.886 1.098-3.514.024-1.139-1.947 1.707-1.416 1.994-4.577.5-5.5-.55-.34-1-1.068-1-1.618 0-.555.556-.648 1.25-.209 2.116 1.338 6.75 1.203 6.75-.196 0-.817.825-1.109 2.25-.797 1.659.364 1.888.237.872-.481-.758-.537-1.056-1.498-.661-2.136.536-.867 1.063-.873 2.084-.025.752.624 1.806.863 2.342.532.536-.332 1.237-.178 1.558.342.321.519-.281 1.219-1.338 1.554-1.95.619-3.601 3.373-2.614 4.36.297.298 1.073.008 1.724-.643 1.619-1.619 5.12-1.563 4.181.067-.396.688.365.29 1.691-.884 1.659-1.468 3.03-1.906 4.395-1.405 2.828 1.04 5.745.077 5.073-1.674-.307-.798-.557-2.089-.557-2.869 0-.78-.845-1.418-1.878-1.418-1.032 0-2.437-.675-3.122-1.5s-1.897-1.5-2.694-1.5c-2.097 0-4.306-2.528-4.306-4.929 0-2.258-1.577-2.832-2.254-.821-.335.996-.727.998-1.925.009-.828-.683-1.797-.949-2.154-.592M94.5 48c-.34.55-.141 1 .441 1S96 48.55 96 48s-.198-1-.441-1-.719.45-1.059 1m112.424 2.75L204.5 53.5l2.75-2.424c2.57-2.266 3.209-3.076 2.424-3.076-.179 0-1.416 1.237-2.75 2.75M158 50c0 .55.45 1 1 1s1-.45 1-1-.45-1-1-1-1 .45-1 1M47.02 51.476c-.789.95-.865 1.524-.201 1.524 1.208 0 2.617-1.897 1.924-2.591-.252-.251-1.027.229-1.723 1.067m25.439-.409c-1.076 1.741.149 2.11 1.521.457.789-.95.865-1.524.201-1.524-.584 0-1.36.48-1.722 1.067m176.791.6c-2.159.863-1.361 2.128 1.249 1.977 1.375-.079 2.359-.566 2.188-1.081-.391-1.177-1.811-1.547-3.437-.896m-142.592 1.782c-.371.967-.076 1.265.887.895.794-.304 1.195-.956.89-1.449-.766-1.24-1.132-1.126-1.777.554M161.5 53c.34.55.816 1 1.059 1s.441-.45.441-1-.477-1-1.059-1-.781.45-.441 1M63 54c0 .55.477 1 1.059 1s.781-.45.441-1-.816-1-1.059-1-.441.45-.441 1m-20 1.5c-1.017 1.225-.957 1.5.328 1.5.865 0 1.939.655 2.387 1.455.509.911 1.314 1.145 2.153.627 1.042-.644 1.086-1.299.2-2.955-1.333-2.491-3.317-2.737-5.068-.627m26.5-.5c-.34.55.11 1 1 1s1.34-.45 1-1c-.34-.55-.79-1-1-1-.21 0-.66.45-1 1m177.5.885c0 .897 3.005 2.443 3.598 1.851.171-.172-.568-.861-1.643-1.532-1.075-.672-1.955-.815-1.955-.319M97 57c0 .55.477 1 1.059 1s.781-.45.441-1-.816-1-1.059-1-.441.45-.441 1m4.507-.011c-.35.566.051.734.941.393 1.732-.665 2.049-1.382.611-1.382-.518 0-1.216.445-1.552.989M252 62c0 .55.477 1 1.059 1s.781-.45.441-1-.816-1-1.059-1-.441.45-.441 1m-237.333.667c-.932.932-.832 2.333.166 2.333.459 0 .834-.675.834-1.5 0-1.699-.073-1.76-1-.833M26 64.059c0 .582.45.781 1 .441s1-.816 1-1.059S27.55 63 27 63s-1 .477-1 1.059m5 1.048c0 .609.675.848 1.5.531.825-.316 1.5-.139 1.5.393 0 .533.873.969 1.941.969s2.219.45 2.559 1c.34.55 1.461 1 2.492 1 1.03 0 2.159.9 2.508 2 .735 2.315 4.5 2.733 4.5.5 0-.877-.934-1.516-2.25-1.539-1.845-.032-1.621-.33 1.25-1.656 1.925-.89 3.95-1.492 4.5-1.339.55.153 1.788.5 2.75.773.969.274 1.75-.041 1.75-.706 0-.66-.562-1.01-1.25-.778-.687.233-2.78-.214-4.651-.993-3.043-1.266-3.75-1.226-6.732.379-2.792 1.504-3.537 1.576-4.599.441-1.048-1.119-.877-1.26.982-.812 1.237.299 2.25.135 2.25-.364 0-.498-2.475-.906-5.5-.906-3.354 0-5.5.432-5.5 1.107M26.5 67c-.34.55-.141 1 .441 1S28 67.55 28 67s-.198-1-.441-1-.719.45-1.059 1m112.027.956c-.366.592-1.084.818-1.596.501-.512-.316-.931-.05-.931.591s.646.918 1.435.615c.79-.303 1.6-.058 1.8.543.201.602.874.914 1.495.694.802-.284.742-.926-.204-2.21-.858-1.164-1.571-1.426-1.999-.734M118 68.917c0 .504.563 1.175 1.25 1.49.688.316.237.323-1 .016-1.277-.316-2.25-.096-2.25.51 0 .587-.9 1.067-2 1.067s-2 .45-2 1 .388 1 .861 1c.474 0 .647 1.125.384 2.5-.535 2.798.612 3.154 4.019 1.25 2.94-1.643 3.878-3.044 2.576-3.849-.728-.45-.712-.862.053-1.335 1.646-1.017 1.34-4.566-.393-4.566-.825 0-1.5.412-1.5.917M1 71.167c0 1.191.127 1.979.283 1.75.156-.229.886-1.204 1.622-2.167C4.052 69.252 4.011 69 2.622 69 1.625 69 1 69.835 1 71.167M122 70c0 .55.45 1 1 1s1-.45 1-1-.45-1-1-1-1 .45-1 1m7.658 1.449c-.372.969-.076 1.265.893.893 1.582-.607 1.994-2.342.556-2.342-.491 0-1.143.652-1.449 1.449M6.636 72.506C5.876 74.488 6.9 77 8.468 77c.801 0 1.081-.909.774-2.515-.585-3.06-1.829-4.005-2.606-1.979m45.937.015c-1.06.802-1.561 1.8-1.113 2.219.448.418 1.015.198 1.26-.49.246-.687 1.084-1.25 1.863-1.25.779 0 1.417-.45 1.417-1 0-1.378-1.147-1.203-3.427.521m29.025.215c-1.073 1.073-.63 2.264.843 2.264.793 0 1.69-.403 1.994-.895.636-1.03-1.936-2.271-2.837-1.369m61.009.846c-.844 2.199-.782 2.418.68 2.418.708 0 1.355-.9 1.438-2 .179-2.38-1.256-2.664-2.118-.418m-4.967 1.525c-.981 1.146-1.502 2.365-1.157 2.709.344.344 1.027-.023 1.517-.816.49-.793 1.205-1.128 1.588-.745.383.383.187 1.311-.437 2.063-.623.751-.838 1.662-.476 2.024.362.362-.092.658-1.008.658-.917 0-1.667-.45-1.667-1s-.675-1-1.5-1c-2.352 0-1.747 1.378 1.207 2.75 4.638 2.154 10.337 1.212 8.205-1.356-.626-.754-1.425-1.195-1.775-.979-.35.216-.705-.734-.787-2.111-.224-3.722-1.67-4.579-3.71-2.197M1 77.031C1 79.384 1.438 80 3.107 80c1.51 0 1.935-.448 1.5-1.582-.334-.87-.607-1.947-.607-2.393 0-.446-.675-1.07-1.5-1.387-1.126-.432-1.5.165-1.5 2.393M107.5 75c-.34.55.11 1 1 1s1.34-.45 1-1c-.34-.55-.79-1-1-1-.21 0-.66.45-1 1m21.959.067c-.363.586-.454 1.272-.202 1.523.697.698 3.743-.683 3.743-1.697 0-1.252-2.743-1.117-3.541.174M45 77.5c0 .825.402 1.5.893 1.5s1.152-.675 1.469-1.5c.35-.914.001-1.5-.893-1.5-.808 0-1.469.675-1.469 1.5m37.676.902c-.625 1.629.215 2.784 1.463 2.012C85.275 79.712 85.25 77 84.107 77c-.491 0-1.135.631-1.431 1.402m-32.388.284c-1.928.724-5.539 7.217-4.917 8.839.377.983-.071 1.475-1.343 1.475-1.051 0-2.195.461-2.543 1.025-.349.563-.263.942.191.841.453-.101 1.613.161 2.576.583 2.314 1.012 6.876-.177 6.625-1.727-.109-.672.325-2.491.964-4.042 1.062-2.575 1.3-2.682 2.75-1.232s1.392 1.745-.664 3.41c-1.544 1.25-1.886 2.049-1.089 2.542.713.44 1.193.019 1.241-1.091.046-1.049.291-1.284.583-.559.278.688 1.128 1.25 1.89 1.25.872 0 1.152.607.757 1.636-.429 1.12-.187 1.49.767 1.172 1.782-.594 2.364-7.573.79-9.47-.653-.786-1.839-1.178-2.638-.872-1.014.389-1.267.077-.839-1.038.391-1.017.159-1.442-.638-1.174-.688.232-1.701-.129-2.251-.801-.55-.673-1.545-1.018-2.212-.767M144 78.571c0 .315.675 1.247 1.5 2.072s1.5 1.191 1.5.813c0-.377 1.125.051 2.5.952 1.375.901 2.5 1.222 2.5.714 0-.509-1.601-1.869-3.557-3.023-3.756-2.216-4.443-2.452-4.443-1.528M119 80c0 .55.477 1 1.059 1s.781-.45.441-1-.816-1-1.059-1-.441.45-.441 1m-50.377 3.161c-1.993 1.764-3.594 3.912-3.56 4.773.04.982.401.727.968-.684.979-2.436 2.969-3.067 2.969-.941 0 .72-.589 2.115-1.31 3.1-1.458 1.994-1.298 8.383.248 9.929 1.258 1.258 2.528-1.682 1.68-3.89-.341-.89-.173-1.291.393-.941 1.509.933 1.179 4.16-.608 5.947-.879.879-1.359 2.217-1.069 2.974.291.758-.101 2.209-.871 3.225-1.336 1.763-2.098 5.315-.878 4.096.955-.956 4.415 2.549 4.415 4.473 0 .978.9 2.678 2 3.778 2.436 2.436 3.144 2.54 2.299.336-.43-1.119-.256-1.427.531-.941.644.398 1.17.246 1.17-.336 0-1.738 2.56-1.203 4.5.941.995 1.1 1.328 2 .738 2-.589 0-1.272-.562-1.518-1.25-.546-1.529-1.269-.913-2.095 1.785-.475 1.549.092 2.457 2.376 3.806 2.764 1.634 2.999 1.641 2.999.099 0-1.171.59-1.519 1.966-1.159 1.165.304 1.878.046 1.75-.634-.119-.631.347-1.034 1.034-.897 1.768.354 1.559-1.418-.25-2.112-.825-.316-1.5-1.094-1.5-1.729 0-.837.359-.856 1.309-.068.975.81 1.717.61 2.91-.784 1.485-1.734 1.455-1.909-.409-2.396-1.106-.29-1.741-.964-1.41-1.5.717-1.159 4.777-.294 5.868 1.251.515.73 1.099.528 1.772-.612.703-1.191 1.944-1.58 4.145-1.302 1.728.219 3.855.032 4.728-.415 1.864-.955 4.087-.352 4.087 1.107 0 .563-.661.77-1.468.461-.807-.31-1.734-.133-2.059.393-.325.526-.114.956.468.956.582 0 1.059.675 1.059 1.5s.45 1.5 1 1.5 1-.9 1-2c0-1.323.667-2 1.969-2 1.422 0 1.812.485 1.405 1.75-.475 1.477-.394 1.516.516.25 1.555-2.161 1.368-2.969-.877-3.8-1.966-.727-1.966-.748-.037-1.953 1.627-1.016 1.856-.972 1.38.268-.751 1.958.384 1.888 2.421-.149 1.512-1.512 1.699-1.439 2.502.971.699 2.096 1.127 2.366 2.194 1.384.987-.909 1.045-1.604.225-2.721-.887-1.208-.844-1.272.222-.328.728.644 1.944.934 2.702.643.758-.291 1.378-.031 1.378.578s.477 1.107 1.059 1.107.781-.45.441-1c-.62-1.003 2.044-1.479 6.25-1.118 2.961.255 2.841-.81-.406-3.6-3.105-2.669-4.193-2.84-4.982-.782-.317.825-1.428 1.5-2.469 1.5s-1.908.563-1.926 1.25c-.019.688-.892.22-1.942-1.038-1.779-2.135-9.173-4.173-8.904-2.456.361 2.311-.392 3.244-2.621 3.244-1.375 0-2.5-.499-2.5-1.108 0-.673-.95-.87-2.417-.502-1.502.377-2.595.134-2.885-.642-.324-.863-.957-.631-2.051.752-1.5 1.894-1.585 1.901-1.615.133-.024-1.368-.566-1.727-2.032-1.343-1.1.287-2 .04-2-.55 0-.59-.288-.786-.639-.434-.352.351-1.533-1.167-2.625-3.375s-1.769-4.231-1.504-4.496c1.01-1.01 3.616.797 3.098 2.148-.299.779-.096 1.417.452 1.417s.933.77.857 1.712c-.214 2.634 3.071 2.779 3.898.171.486-1.53.198-2.603-.914-3.417C96.73 98.813 96 97.797 96 97.207c0-1.673-3.705-2.436-5.962-1.227-1.121.6-2.038 1.975-2.038 3.055 0 1.371-.681 1.965-2.25 1.966-1.237.001-3.557 1.126-5.156 2.5-3.221 2.771-4.557 3.128-4.668 1.249-.041-.687-.262-2.257-.492-3.487-.309-1.654.036-2.199 1.324-2.091 4.803.4 7.167-.203 6.599-1.683-.415-1.082-.121-1.336 1.032-.893.9.345 1.611.116 1.611-.52 0-1.716-2.838-2.455-4.411-1.149-1.642 1.362-8.836.833-9.342-.687-.533-1.597 1.771-2.622 3.04-1.353 1.568 1.568 3.713 1.384 3.713-.32 0-2.237-3.804-2.926-6.48-1.172-2.188 1.434-2.413 1.42-2.77-.167-.213-.95-.042-2.711.381-3.911.486-1.382.347-2.324-.381-2.567-.665-.222-.433-.658.551-1.035.934-.359 1.699-.216 1.699.316 0 .533.675.969 1.5.969 1.834 0 1.86-.942.091-3.273-1.259-1.66-1.578-1.568-4.968 1.434M59.5 82c.34.55.816 1 1.059 1s.441-.45.441-1-.477-1-1.059-1-.781.45-.441 1m21 0c-.34.55-.141 1 .441 1S82 82.55 82 82s-.198-1-.441-1-.719.45-1.059 1m10.529-.039c-.809.512-1.211 1.191-.893 1.509.319.318 1.148-.108 1.844-.946 1.443-1.738 1.166-1.902-.951-.563m35.584 2.855c-.402.651-.446 1.747-.098 2.434.348.688-.012.463-.801-.5-1.768-2.156-2.714-2.233-2.714-.219 0 1.907 2.404 2.913 4.307 1.803.906-.529 1.174-1.54.733-2.768-.476-1.324-.926-1.56-1.427-.75M130 85c0 .55.45 1 1 1s1-.45 1-1-.45-1-1-1-1 .45-1 1m12 0c0 .55.477 1 1.059 1s.781-.45.441-1-.816-1-1.059-1-.441.45-.441 1m33.037 21.25c-4.537 20.192-9.476 44.404-13.506 66.205l-2.394 12.954 3.329 3.685c1.831 2.027 3.63 4.635 3.999 5.795.996 3.14 6.612 2.785 12.913-.816 2.817-1.61 10.813-5.409 17.769-8.441 6.956-3.032 18.106-8.25 24.777-11.594 10.591-5.309 12.411-5.93 14.353-4.895 2.6 1.385 2.97 1.948-6.256-9.506-5.693-7.067-8.853-12.84-8.977-16.397-.024-.693-2.709-4.547-5.966-8.565-6.713-8.279-30.055-40.134-32.741-44.682-.972-1.646-2.04-2.993-2.371-2.993-.332 0-2.55 8.662-4.929 19.25M79.5 89c-.34.55-.115 1 .5 1s.793.526.395 1.17c-.51.824-.158.939 1.191.386 1.053-.43 2.696-1.008 3.653-1.283.956-.275 1.492-.899 1.191-1.387-.749-1.212-6.165-1.123-6.93.114m-67.678 3.026C10.613 93.662 9.034 95 8.312 95c-1.816 0-1.649 1.657.24 2.382.89.341 1.291.173.941-.393-.336-.544.053-.989.865-.989.811 0 1.704.563 1.983 1.25.394.972.718.948 1.458-.107C15.142 95.227 19 96.655 19 99.067c0 1.063.45 1.933 1 1.933s1-.436 1-.969c0-.532.629-.727 1.399-.431.769.295 1.684.075 2.032-.488.348-.564 1.294-.771 2.101-.461.807.309 1.468.065 1.468-.544S27.568 97 27.04 97c-.527 0-2.102-1.233-3.5-2.74-1.898-2.047-2.54-2.327-2.54-1.107 0 .898-.712 1.906-1.582 2.24-2.621 1.006-2.817.705-.912-1.399 2.018-2.23 2.064-2.129-1.745-3.765-2.507-1.076-2.927-.924-4.939 1.797m119.911 1.098c.679.684 1.486.991 1.793.683.308-.308-.247-.867-1.233-1.243-1.425-.542-1.54-.428-.56.56m-115.668 9.297c-.968 1.167-.81 1.325.883.882 1.135-.296 2.735.019 3.557.701 1.98 1.643 1.922.566-.076-1.433-1.942-1.941-2.851-1.972-4.364-.15M0 107.686c0 5.561.023 5.604 2 3.814 2.377-2.151 2.569-3.5.5-3.5-1.76 0-1.845-.487-.518-2.966.729-1.362.6-1.98-.5-2.403-1.201-.46-1.482.498-1.482 5.055m86-4.762c0 .474.675 1.121 1.5 1.438.825.316 1.5.187 1.5-.286 0-.474-.675-1.121-1.5-1.438-.825-.316-1.5-.187-1.5.286M122.5 105c-.34.55-.141 1 .441 1s1.059-.45 1.059-1-.198-1-.441-1-.719.45-1.059 1m15.151.468c-.87 2.265.635 2.484 2.774.404 1.899-1.846 1.897-1.872-.143-1.872-1.137 0-2.322.661-2.631 1.468m38.349.914c0 .825.45 1.778 1 2.118.55.34 1-.057 1-.882s-.45-1.778-1-2.118c-.55-.34-1 .057-1 .882m-152.971.579c-1.995 1.262-.946 2.091 1.753 1.386 1.208-.316 1.949-.973 1.648-1.461-.692-1.119-1.543-1.1-3.401.075m-17.362.769c-.294.476-.227 1.294.149 1.818 1.06 1.475 4.003 1.367 4.592-.169.291-.759.13-1.379-.358-1.379-.487 0-1.553-.256-2.367-.568-.814-.313-1.722-.179-2.016.298m135.083.382c-.963.543-1.75 1.667-1.75 2.497 0 .83.45 1.231 1 .891.55-.34 1 .092 1 .96 0 1.184.624 1.421 2.5.951 1.375-.345 3.625-.345 5 0 2.98.748 3.481 3.872.545 3.402-2.061-.33-2.398.501-1.434 3.538.323 1.018.093 2.345-.512 2.95-1.507 1.507-1.379 2.699.29 2.699.764 0 1.368-.562 1.342-1.25-.025-.687.035-2.6.134-4.25l.179-3 1.845 2.399c1.77 2.302 1.889 2.323 2.947.5.607-1.044 1.117-1.336 1.134-.649.016.688.511 1.25 1.1 1.25.588 0 .925-.918.75-2.04-.176-1.121-.72-1.983-1.208-1.914-1.445.203-2.612-2.4-1.982-4.421.771-2.475-1.176-3.591-6.297-3.61-2.291-.008-4.316-.437-4.5-.953-.204-.573-1.013-.554-2.083.05m-68.294 1.083c1.746 1.013 1.777 1.197.286 1.72-1.131.397-1.391 1.035-.806 1.981.66 1.069 1.242.66 2.489-1.75L76.051 108l-2.775.03c-2.556.028-2.621.121-.82 1.165M28 109.819c0 1.208 1.897 2.617 2.591 1.924.251-.252-.229-1.027-1.067-1.723-.95-.789-1.524-.865-1.524-.201m68.447.096c.311.503 0 1.116-.691 1.363-.691.246-.929.799-.53 1.228.399.428 1.392.226 2.206-.45.814-.675 1.95-.938 2.524-.583.574.355 1.044.217 1.044-.307 0-.956-2.314-2.166-4.141-2.166-.537 0-.723.412-.412.915m-83.102 1.628c-.819 2.135.538 3.227 1.775 1.428.768-1.117.859-.93.378.779-.348 1.237-.205 2.25.318 2.25 1.113 0 2.322-3.967 1.577-5.174-.853-1.379-3.418-.925-4.048.717M24.5 111c-.34.55.084 1 .941 1S27 111.55 27 111s-.423-1-.941-1-1.219.45-1.559 1m61.998.004c-.341.552-1.718.728-3.059.391-1.548-.388-2.439-.183-2.439.562 0 1.552 11.256.775 11.786-.814.475-1.427-5.412-1.557-6.288-.139M116 116.059c0 .582.45.781 1 .441s1-.816 1-1.059-.45-.441-1-.441-1 .477-1 1.059m-114.75.661c-.687.246-1.25 1.181-1.25 2.078 0 1.484.152 1.479 1.69-.06 1.808-1.808 1.603-2.747-.44-2.018m6.75.254c0 .467.662.752 1.471.633 2.331-.342 2.633-1.174.486-1.335-1.076-.081-1.957.235-1.957.702m7.985 2.054c-.597 1.115-1.462 1.795-1.922 1.511-1.139-.704-3.545 2.326-2.569 3.235.429.399.981.164 1.226-.524.246-.687.907-1.25 1.47-1.25s.808.563.544 1.25c-.315.821.506 1.25 2.393 1.25 1.58 0 2.943-.45 3.03-1 .759-4.849.436-6.5-1.271-6.5-.999 0-2.304.913-2.901 2.028m124.474-.961c-.791 1.279-.593 1.49 2.207 2.349 2.83.869 3.963-1.009 1.428-2.366-2.449-1.31-2.816-1.308-3.635.017M84 119.5c0 .825.177 1.5.393 1.5.216 0 .652-.675.969-1.5.316-.825.139-1.5-.393-1.5-.533 0-.969.675-.969 1.5m54 1c0 1.51.571 2.5 1.441 2.5 2.251 0 2.415-1.335.4-3.25-1.764-1.677-1.841-1.645-1.841.75m-100 1c0 .825.436 1.5.969 1.5.532 0 .709-.675.393-1.5-.317-.825-.753-1.5-.969-1.5-.216 0-.393.675-.393 1.5m57.015-.809c-.008.655.435 1.469.985 1.809.55.34 1 1.068 1 1.618s-.52.679-1.155.287c-.715-.443-.883-.275-.44.44 1.272 2.06 3.798 1.37 3.095-.845-.364-1.147-.18-2 .433-2 .587 0 1.067-.45 1.067-1s-.675-1-1.5-1-1.507.563-1.515 1.25c-.011.833-.339.75-.985-.25-.582-.901-.975-1.025-.985-.309M121.5 122c.34.55 1.379.993 2.309.985 1.457-.014 1.484-.15.191-.985-1.958-1.266-3.282-1.266-2.5 0M8.094 123.387c-.818.985-.86 1.639-.135 2.087.58.359 1.333-.07 1.672-.954.844-2.2-.084-2.884-1.537-1.133m108.504.349c-1.132 1.131-.594 1.835 1.402 1.835 1.1 0 2-.305 2-.678 0-.962-2.685-1.875-3.402-1.157M142.5 124c.34.55.816 1 1.059 1s.441-.45.441-1-.477-1-1.059-1-.781.45-.441 1m-35.5 1c0 .55.45 1 1 1s1-.45 1-1-.45-1-1-1-1 .45-1 1m44 0c0 .55.45 1 1 1s1-.45 1-1-.45-1-1-1-1 .45-1 1m-24.795 1.375c.707.756 1.849 1.158 2.54.893 2.174-.835 1.363-2.268-1.284-2.268-2.111 0-2.323.232-1.256 1.375M17.51 128.016c.346.559 1.047.758 1.559.441 1.387-.857 1.129-1.457-.628-1.457-.857 0-1.276.457-.931 1.016M35 129c0 .55.45 1 1 1s1-.45 1-1-.45-1-1-1-1 .45-1 1m-2.416 6.25-2.861 3.25 4.888.5c2.811.287 5.059.075 5.289-.5.22-.55.895-1.331 1.5-1.735.672-.448.396-.74-.709-.75-.995-.008-1.557-.423-1.249-.922.309-.498-.416-.651-1.609-.339-1.722.45-2.039.224-1.533-1.093 1.01-2.633-.608-1.941-3.716 1.589M70 139.882c0 .55.45 1.278 1 1.618.55.34 1 .168 1-.382s-.45-1.278-1-1.618c-.55-.34-1-.168-1 .382M133 142c0 .55.45 1 1 1s1-.45 1-1-.45-1-1-1-1 .45-1 1m-8 1.393c0 .216.675.652 1.5.969.825.316 1.5.139 1.5-.393 0-.533-.675-.969-1.5-.969s-1.5.177-1.5.393m-2.843 3.284c-.732.784-1.059 2.136-.725 3.005.513 1.339.908 1.231 2.587-.704 2.341-2.699 2.326-2.632.726-3.246-.691-.265-1.855.16-2.588.945M131.5 151c.34.55 1.041 1 1.559 1s.941-.45.941-1-.702-1-1.559-1-1.281.45-.941 1M15.074 162.411c-.801.965-.839 1.616-.123 2.059.577.356 1.049-.016 1.049-.828 0-.811.563-1.702 1.25-1.98.785-.317.831-.533.122-.583-.62-.043-1.654.556-2.298 1.332m-10.66 17.821c-.048 1.247-.463 3.134-.924 4.192-.676 1.552-.514 1.799.836 1.281.921-.353 1.674-.206 1.674.326 0 .533-.702.969-1.559.969s-1.281.45-.941 1c.34.55-.309 1-1.441 1C.021 189 0 189.347 0 222.5V256h5.059c3.118 0 4.822-.384 4.441-1-.351-.567.49-1 1.941-1 1.407 0 2.559-.45 2.559-1s.787-.999 1.75-.999c1.492.002 1.7-.793 1.414-5.384-.295-4.735-.567-5.324-2.25-4.884-1.053.275-1.914-.002-1.914-.616 0-.615.949-1.117 2.108-1.117 1.802 0 2.008-.401 1.417-2.75-.381-1.512-.843-5.45-1.027-8.75l-.335-6 1.169 5.011 1.168 5.01 4.5-.634c2.475-.348 4.838-.439 5.25-.201.413.237.75-.255.75-1.096 0-.952.569-1.309 1.513-.947.832.32 2.129.069 2.883-.557 1.052-.873 1.51-.773 1.972.432.489 1.272 1.006 1.352 2.738.425 1.489-.797 1.93-.81 1.456-.043-.374.605-.203 1.1.379 1.1.582 0 1.059-.45 1.059-1s.702-1 1.559-1 1.321.385 1.03.856c-.291.47.583.643 1.941.383 1.416-.271 2.477-1.169 2.485-2.106.012-1.297.192-1.354.875-.276.6.946 1.067 1.021 1.544.25 1.026-1.661 2.867-1.333 2.204.393-.316.825-.194 1.5.271 1.5.957 0 3.202-2.461 2.832-3.104-.132-.231.292.193.942.942.651.749 1.664 1.066 2.25.703.594-.367 1.067.086 1.067 1.022 0 1.379.269 1.458 1.495.441.822-.682 2.397-1.004 3.5-.716 1.103.289 2.005.117 2.005-.382 0-1.308 2.763-1.117 3.21.223.587 1.762 7.29 1.639 7.29-.135 0-.806.788-1.618 1.75-1.804.963-.185 1.75.135 1.75.711s1.463 1.804 3.25 2.728c3.041 1.572 3.16 1.572 1.857.001-.765-.923-1.078-1.992-.695-2.375.383-.383 1.063-.104 1.512.622.448.725 1.998 1.387 3.445 1.471 1.446.083 2.63.715 2.63 1.402.001.688.478 1.25 1.06 1.25.582 0 .781-.45.441-1s.132-1 1.048-1c1.07 0 1.46-.537 1.09-1.5-.692-1.803-.544-1.82 3.047-.34 1.548.639 3.423 1.058 4.165.933.743-.125 1.1.178.794.673-.306.496.114.901.933.901 1.025 0 1.167-.323.456-1.034-.568-.568-1.033-1.781-1.033-2.694 0-1.203-.646-1.538-2.342-1.214-3.185.609-5.658-2.115-5.658-6.234 0-3.254-.11-3.347-3.326-2.826-5.601.909-8.849-4.605-5.132-8.712 1.407-1.555 1.282-1.923-1.429-4.204-6.606-5.559-21.8-4.361-51.926 4.095-12.243 3.436-14.398 4.359-17.029 7.295l-3.012 3.361-.702-5.25c-.386-2.887-1.12-5.25-1.632-5.25-.511 0-.647-.458-.301-1.017.346-.56.32-3.485-.056-6.5-.515-4.119-1.092-5.487-2.32-5.498-1.356-.013-1.392-.169-.214-.915 1.218-.771 1.169-1.835-.344-7.423-2.051-7.576-4.023-11.09-4.163-7.415M5 189c0 .55.423 1 .941 1s1.219-.45 1.559-1c.34-.55-.084-1-.941-1S5 188.45 5 189m243 30.637c-2.475 1.944-4.575 3.608-4.668 3.699-.092.09 1.594.097 3.746.016 2.153-.081 3.664.256 3.359.75-.305.494.282.898 1.304.898s2.399.54 3.059 1.2c.933.933 1.2.068 1.2-3.893 0-3.722-.426-5.256-1.582-5.7-1.939-.744-1.12-1.131-6.418 3.03m-77 4.781c0 .78-.301 2.204-.67 3.164-.457 1.191-.298 1.516.5 1.023.644-.398 1.17-1.596 1.17-2.664s.388-1.941.861-1.941c.474 0 .647 1.125.384 2.5-.266 1.392-.009 2.5.579 2.5 1.636 0 2.341-1.768.932-2.336-.842-.339-.745-.532.294-.585.853-.043 2.067.438 2.699 1.07.865.865 1.755.751 3.605-.461 2.658-1.742 6.534-1.488 7.768.51.423.684 1.078.935 1.455.558s1.527-.236 2.554.314c2.15 1.151 2.547-.263.541-1.927-1.445-1.2-12.908-3.091-18.922-3.123-2.58-.014-3.75.423-3.75 1.398m-100 2.975c0 .216.698.661 1.552.989.89.341 1.291.173.941-.393-.587-.951-2.493-1.406-2.493-.596M9 229c-1.282.828-1.246.972.25.985.963.008 1.75-.435 1.75-.985 0-1.22-.113-1.22-2 0m88.5 2c-.34.55-.141 1 .441 1S99 231.55 99 231s-.198-1-.441-1-.719.45-1.059 1m12.313 2.683c.721.289 1.584.253 1.916-.079.332-.332-.258-.568-1.312-.525-1.165.048-1.402.285-.604.604m-99 1c.721.289 1.584.253 1.916-.079.332-.332-.258-.568-1.312-.525-1.165.048-1.402.285-.604.604m1.937 8.979c.688.278 1.813.278 2.5 0 .688-.277.125-.504-1.25-.504s-1.937.227-1.25.504m-.75 3.731c0 .949 2.993 1.427 3.527.563.325-.526-.336-.956-1.468-.956s-2.059.177-2.059.393"/></svg>